<svg height="512pt" preserveAspectRatio="xMidYMid meet" viewBox="0 0 512 512" width="512pt" xmlns="http://www.w3.org/2000/svg"><g transform="matrix(.1 0 0 -.1 0 512)"><path d="m3965 5105c-62-19-144-63-205-108-161-119-1083-1025-1291-1267-166-194-182-218-336-495-77-137-235-414-352-613-242-416-316-551-389-710-111-241-162-434-164-616-1-172 31-270 131-394 28-35 54-75 58-90 3-15 1-63-6-107s-17-109-22-145c-24-153 25-346 113-446 83-95 180-121 237-64 47 48 48 62 2 156-104 212-69 391 89 463 25 11 60 21 78 21 55 0 182 48 253 96 121 80 214 199 305 388 76 158 105 270 111 431 6 152-7 219-64 328-47 89-153 188-257 241-130 65-145 110-74 217 65 98 217 243 388 371 85 63 196 156 246 206 169 167 243 280 807 1231 290 490 527 893 527 895 0 9-75 26-110 25-19-1-53-7-75-14zm-1758-2243c65-46 81-145 34-210-27-39-98-67-146-58-49 9-102 59-115 107-19 69 13 136 85 178 29 17 108 8 142-17zm-130-964c72-27 153-105 171-164 38-129-25-366-144-545-111-167-234-213-386-146-195 86-218 285-68 592 121 248 252 329 427 263z"/><path d="m4345 3604c-412-73-791-140-842-149l-92-17-37-66c-142-256-363-520-539-643-76-53-145-119-145-138 0-9 142 22 278 60 390 109 1199 435 1810 730 157 75 190 96 236 143 36 37 61 74 75 111 21 56 28 106 14 104-5-1-345-61-758-135z"/><path d="m645 3679c-237-32-420-129-518-276-75-114-91-173-92-343 0-163 9-209 63-313 81-157 253-262 517-314 165-33 746-21 802 15 9 6 175 281 261 433l32 56-41 7c-34 5-42 12-55 41-8 19-14 65-14 102-1 192-96 366-259 472-69 44-173 84-276 106-87 19-327 27-420 14zm373-335c171-38 262-139 262-292 0-197-161-301-467-302-227 0-376 59-435 174-26 51-36 167-18 222 31 95 111 162 230 194 101 28 312 30 428 4z"/></g></svg>